<svg width="54" height="78" viewBox="0 0 54 78" fill="none" xmlns="http://www.w3.org/2000/svg">
<g id="Group">
<path id="Vector" d="M26.9303 77.6921C25.7817 75.8069 24.7129 74.054 23.644 72.2945C17.6224 62.3725 11.5809 52.4571 5.58587 42.5285C2.83068 37.971 0.938557 33.0695 0.407436 27.7579C-0.0108222 23.5774 0.838971 19.516 2.63814 15.7324C6.92695 6.69015 14.117 1.45133 24.0689 0.194541C36.2382 -1.34006 48.215 6.35281 52.1187 18.0277C52.8756 20.3032 53.3137 22.6249 53.493 25.0062C53.732 28.1878 52.9088 31.1909 51.9859 34.1807C50.5585 38.8309 48.0689 42.9386 45.5594 47.0529C39.7834 56.5119 34.0473 65.9841 28.2979 75.4563C27.8664 76.1509 27.4415 76.852 26.9303 77.6921ZM26.8506 14.211C20.0456 14.1515 14.4622 19.6152 14.3892 26.4151C14.3162 33.1819 19.8266 38.7846 26.6183 38.8573C33.4365 38.9301 39.0863 33.4664 39.1527 26.726C39.2257 19.8269 33.7618 14.2706 26.8506 14.211Z" fill="#E91D24"/>
<path id="Vector_2" d="M26.8508 14.2109C33.7686 14.2705 39.2259 19.8268 39.1595 26.7259C39.0865 33.4663 33.4433 38.93 26.625 38.8572C19.8333 38.7845 14.323 33.1818 14.396 26.415C14.4557 19.6151 20.0391 14.1514 26.8508 14.2109Z" fill="#FDFDFD"/>
</g>
</svg>
